<svg width="20" height="19" viewBox="0 0 20 19" fill="none" xmlns="http://www.w3.org/2000/svg">
<path d="M0.93335 1.63333H4.40003" stroke="#FAFAFA" stroke-miterlimit="10" stroke-linecap="round"/>
<path d="M4.40002 1.63333L7.33335 13.1" stroke="#FAFAFA" stroke-miterlimit="10" stroke-linecap="round"/>
<path d="M7.86664 13.1H18.8666" stroke="#FAFAFA" stroke-miterlimit="10" stroke-linecap="round"/>
<path d="M8.70001 17.2C9.52846 17.2 10.2 16.5285 10.2 15.7C10.2 14.8716 9.52846 14.2 8.70001 14.2C7.87156 14.2 7.20001 14.8716 7.20001 15.7C7.20001 16.5285 7.87156 17.2 8.70001 17.2Z" stroke="#FAFAFA" stroke-miterlimit="10" stroke-linecap="round"/>
<path d="M16.7 17.2C17.5284 17.2 18.2 16.5285 18.2 15.7C18.2 14.8716 17.5284 14.2 16.7 14.2C15.8716 14.2 15.2 14.8716 15.2 15.7C15.2 16.5285 15.8716 17.2 16.7 17.2Z" stroke="#FAFAFA" stroke-miterlimit="10" stroke-linecap="round"/>
<path d="M17.1334 10.2333H7.53335C7.13335 10.2333 6.73335 9.96667 6.66669 9.56667L5.40002 5.10001C5.26669 4.50001 5.66668 3.96667 6.26668 3.96667H18.3334C18.9334 3.96667 19.4 4.56667 19.2 5.10001L17.9334 9.56667C17.9334 9.96667 17.6 10.2333 17.1334 10.2333Z" stroke="#FAFAFA" stroke-miterlimit="10" stroke-linecap="round"/>
</svg>
