<svg width="12" height="13" viewBox="0 0 12 13" fill="none" xmlns="http://www.w3.org/2000/svg">
<g clip-path="url(#clip0_9_1824)">
<path d="M11.5612 4.12163L11.0308 4.65223L7.84841 1.47025L8.37877 0.9396C8.96463 0.35367 9.91467 0.35367 10.5006 0.9396L11.5612 2.00049C12.1463 2.5861 12.1463 3.53575 11.5612 4.12163ZM4.13586 10.4852C3.9894 10.6316 3.9894 10.8688 4.13586 11.0153C4.28239 11.1626 4.51971 11.1626 4.66616 11.0153L10.5006 5.18252L9.96963 4.65186L4.13586 10.4852ZM1.48387 7.83381C1.33733 7.9804 1.33733 8.21749 1.48387 8.36405C1.63032 8.51053 1.86764 8.51053 2.01417 8.36405L7.84841 2.5308L7.31828 2.00049L1.48387 7.83381ZM8.37808 3.06071L2.54436 8.89431C2.25142 9.18668 2.25216 9.66199 2.54436 9.95493C2.83742 10.2479 3.31196 10.2493 3.60567 9.95413L9.43939 4.12163L8.37808 3.06071ZM3.60416 11.5443C3.42479 11.3647 3.33833 11.1371 3.30615 10.9025C3.22991 10.9143 3.15312 10.9253 3.07467 10.9253C2.67398 10.9253 2.29764 10.7687 2.01417 10.4852C1.73071 10.201 1.5747 9.82519 1.5747 9.42454C1.5747 9.35149 1.58566 9.28029 1.59595 9.20931C1.35351 9.17629 1.12942 9.0701 0.953631 8.89431C0.936765 8.87757 0.930953 8.85484 0.915595 8.83649L0 12.5L3.65397 11.5853C3.63787 11.5706 3.61964 11.5596 3.60416 11.5443Z" fill="#FAFAFA"/>
</g>
<defs>
<clipPath id="clip0_9_1824">
<rect width="12" height="12" fill="white" transform="translate(0 0.499985)"/>
</clipPath>
</defs>
</svg>
