<svg width="34" height="36" viewBox="0 0 34 36" fill="none" xmlns="http://www.w3.org/2000/svg">
<path d="M23.3815 4.1434L24.3445 2.52489C24.563 2.13237 25.0445 1.99888 25.437 2.21737C25.8294 2.43587 25.963 2.91741 25.7445 3.30987L24.7815 4.92838C24.652 5.19141 24.3445 5.3209 24.0814 5.3209C23.952 5.3209 23.8184 5.27636 23.689 5.23188C23.2925 5.0174 23.163 4.53993 23.3815 4.1434ZM9.22345 4.93245C9.35294 5.19548 9.66045 5.32497 9.92349 5.32497C10.053 5.32497 10.1865 5.28043 10.316 5.23595C10.7085 5.01745 10.842 4.53592 10.6235 4.14345L9.66051 2.52494C9.44201 2.13243 8.96048 1.99893 8.56801 2.21743C8.17555 2.43593 8.042 2.91746 8.2605 3.30992L9.22345 4.93245ZM17.0005 3.44744C17.4375 3.44744 17.7854 3.09945 17.7854 2.66246V0.78498C17.7854 0.347982 17.4375 0 17.0005 0C16.5635 0 16.2155 0.347982 16.2155 0.78498V2.66246C16.1709 3.09544 16.5189 3.44744 17.0005 3.44744ZM2.84245 15.9869H0.964973C0.527975 15.9869 0.179993 16.3349 0.179993 16.7719C0.179993 17.2089 0.527975 17.5569 0.964973 17.5569H2.84245C3.27945 17.5569 3.62743 17.2089 3.62743 16.7719C3.62743 16.3349 3.27945 15.9869 2.84245 15.9869ZM33.04 15.9869H31.1625C30.7255 15.9869 30.3776 16.3349 30.3776 16.7719C30.3776 17.2089 30.7255 17.5569 31.1625 17.5569H33.04C33.477 17.5569 33.825 17.2089 33.825 16.7719C33.825 16.3349 33.477 15.9869 33.04 15.9869ZM31.5955 8.38395C31.377 7.99143 30.8954 7.85794 30.503 8.07644L28.8845 9.03945C28.492 9.25795 28.3584 9.73948 28.577 10.1319C28.7064 10.395 29.0139 10.5245 29.277 10.5245C29.4065 10.5245 29.54 10.4799 29.6694 10.4354L31.288 9.47243C31.6845 9.25795 31.814 8.77641 31.5955 8.38395ZM27.3145 16.687C27.3145 18.4795 26.833 20.2275 25.959 21.8015C25.9145 21.931 25.87 22.02 25.785 22.109L25.6959 22.2385C25.348 22.7645 24.9959 23.2865 24.5589 23.7235C23.0294 25.864 22.2444 27.701 22.2849 28.8785V28.9231C22.2849 29.0121 22.3294 29.1416 22.3294 29.2711V33.0301C22.3294 34.6891 20.9739 36 19.3595 36H14.512C12.853 36 11.5421 34.6445 11.5421 33.0301V29.2711C11.5421 29.182 11.5421 29.1416 11.5421 29.0526C11.5421 29.008 11.5421 28.9231 11.5421 28.8786C11.5866 27.7416 10.7975 25.9491 9.35706 23.8531C8.87553 23.3271 8.39405 22.7606 8.04607 22.1051C8.00159 22.0161 7.95705 21.9756 7.91658 21.8866C6.99805 20.3125 6.51657 18.5201 6.51657 16.7316C6.51657 11.006 11.1941 6.33257 16.9156 6.33257C22.637 6.28798 27.3145 10.9615 27.3145 16.687ZM20.7149 29.708H13.1565V31.193H20.7149V29.708ZM20.7149 33.119V32.8115H13.1565V33.119C13.2455 33.819 13.812 34.341 14.512 34.341H19.3635C20.0594 34.341 20.63 33.819 20.7149 33.119ZM25.6959 16.687C25.6959 11.8355 21.763 7.90242 16.9114 7.90242C12.0598 7.90242 8.12689 11.8355 8.12689 16.687C8.12689 18.261 8.56389 19.7905 9.34887 21.146C9.34887 21.146 9.34887 21.146 9.34887 21.1905C9.69685 21.757 10.0934 22.283 10.5304 22.7645C10.5749 22.8091 10.5749 22.8091 10.6194 22.8535C12.0599 24.9091 12.8934 26.657 13.1119 28.0976H20.7595C21.0225 26.305 22.2445 24.2536 23.337 22.7241C23.337 22.6795 23.3815 22.6795 23.426 22.635C23.8185 22.2425 24.1705 21.7611 24.4295 21.2795C24.4295 21.235 24.474 21.235 24.474 21.1905C24.474 21.146 24.5186 21.146 24.5186 21.1015C25.3035 19.7905 25.6959 18.261 25.6959 16.687ZM5.11645 9.03945L3.49795 8.07644C3.10543 7.85794 2.62395 7.98742 2.40545 8.38395C2.18695 8.77647 2.31643 9.25795 2.71297 9.47645L4.33147 10.4395C4.46096 10.5285 4.59451 10.5285 4.72399 10.5285C4.98703 10.5285 5.29047 10.399 5.42402 10.136C5.63845 9.73948 5.50897 9.25795 5.11645 9.03945Z" fill="#FAFAFA"/>
</svg>
