<svg width="241" height="241" viewBox="0 0 241 241" fill="none" xmlns="http://www.w3.org/2000/svg">
<g clip-path="url(#clip0_5_229)">
<path d="M237.659 223.95L17.0497 3.34117C13.2641 -0.444901 7.12535 -0.444901 3.33974 3.34117C-0.446337 7.12678 -0.446337 13.265 3.33974 17.0511L223.95 237.661C225.842 239.554 228.324 240.5 230.805 240.5C233.286 240.5 235.768 239.554 237.66 237.661C241.445 233.874 241.445 227.736 237.659 223.95Z" fill="#F5F5F4"/>
<path d="M210.749 201.055H30.2501C24.5375 201.055 19.8898 196.407 19.8898 190.694V80.389C19.8898 74.6759 24.538 70.0287 30.2501 70.0287H60.3331C65.6871 70.0287 70.0278 65.6881 70.0278 60.334C70.0278 54.9799 65.6871 50.6393 60.3331 50.6393H30.2501C13.8462 50.6388 0.5 63.9846 0.5 80.389V190.694C0.5 207.098 13.8462 220.444 30.2501 220.444H210.749C216.104 220.444 220.444 216.104 220.444 210.75C220.444 205.395 216.104 201.055 210.749 201.055Z" fill="#F5F5F4"/>
<path d="M210.749 50.6387H175.827L158.65 24.8726C156.852 22.1754 153.825 20.555 150.584 20.555H90.4168C85.0628 20.555 80.7222 24.8956 80.7222 30.2496C80.7222 35.6037 85.0628 39.9443 90.4168 39.9443H145.394L162.571 65.7104C164.37 68.4076 167.397 70.0276 170.638 70.0276H210.749C216.462 70.0276 221.11 74.6752 221.11 80.3878V174.047C221.11 179.401 225.45 183.741 230.804 183.741C236.159 183.741 240.499 179.401 240.499 174.047V80.3888C240.5 63.9849 227.154 50.6387 210.749 50.6387Z" fill="#F5F5F4"/>
<path d="M158.866 145.39C154.448 142.366 148.415 143.497 145.391 147.916C135.92 161.757 116.953 165.313 103.112 155.841C89.2703 146.371 85.7153 127.405 95.1859 113.563C97.322 110.441 99.9887 107.774 103.112 105.637C107.531 102.613 108.662 96.5798 105.638 92.1613C102.614 87.7425 96.58 86.6118 92.162 89.6357C87.0485 93.1349 82.6821 97.5013 79.1838 102.614C63.6752 125.279 69.4971 156.335 92.162 171.844C100.744 177.716 110.526 180.529 120.215 180.529C136.113 180.529 151.755 172.948 161.392 158.866C164.416 154.447 163.285 148.414 158.866 145.39Z" fill="#F5F5F4"/>
</g>
<defs>
<clipPath id="clip0_5_229">
<rect width="240" height="240" fill="white" transform="translate(0.5 0.5)"/>
</clipPath>
</defs>
</svg>
